<svg id="visual" viewBox="0 0 600 900" width="600" height="900" xmlns="http://www.w3.org/2000/svg" xmlns:xlink="http://www.w3.org/1999/xlink" version="1.1"><rect x="0" y="0" width="600" height="900" fill="#2500FF"></rect><defs><linearGradient id="grad1_0" x1="0%" y1="0%" x2="100%" y2="100%"><stop offset="30%" stop-color="#2500ff" stop-opacity="1"></stop><stop offset="70%" stop-color="#2500ff" stop-opacity="1"></stop></linearGradient></defs><defs><linearGradient id="grad2_0" x1="0%" y1="0%" x2="100%" y2="100%"><stop offset="30%" stop-color="#2500ff" stop-opacity="1"></stop><stop offset="70%" stop-color="#2500ff" stop-opacity="1"></stop></linearGradient></defs><g transform="translate(600, 0)"><path d="M0 405.6C-67.2 388.9 -134.3 372.1 -196 339.5C-257.7 306.8 -313.9 258.2 -344.7 199C-375.4 139.8 -380.7 69.9 -386 0L0 0Z" fill="#492AFF"></path></g><g transform="translate(0, 900)"><path d="M0 -390C67.5 -379.2 135 -368.4 195 -337.7C255 -307.1 307.4 -256.6 341.2 -197C375.1 -137.4 390.3 -68.7 405.6 0L0 0Z" fill="#492AFF"></path></g></svg>