<svg width="113" height="114" viewBox="0 0 113 114" fill="none" xmlns="http://www.w3.org/2000/svg">
<path fill-rule="evenodd" clip-rule="evenodd" d="M106.779 57.7695C106.244 57.0217 105.609 56.3105 104.888 55.6761C104.639 55.4603 104.383 55.2583 104.128 55.0563C99.4009 51.5448 92.729 52.5059 89.0239 57.0761C88.7172 57.4496 88.4041 57.8368 88.07 58.1975C87.2526 59.1327 86.3931 60.015 85.519 60.8572C70.6091 75.0684 47.0542 75.8244 31.2461 61.9867C30.5739 61.3914 29.9218 60.7888 29.2961 60.1651C28.0868 58.9706 26.9767 57.7058 25.9532 56.3979C22.5108 51.9851 16.3158 50.7376 11.5365 53.6435C10.5143 54.2671 9.56446 55.0575 8.72701 56C8.6551 56.0831 8.58319 56.1662 8.50493 56.263C5.23476 60.2197 5.24408 65.9667 8.40596 70.016C9.69631 71.681 11.0933 73.2956 12.5759 74.8334C13.8566 76.1609 15.1901 77.4464 16.6102 78.6889C41.5962 100.537 79.0596 98.9365 102.091 75.6657C103.003 74.7413 103.901 73.7769 104.758 72.7933C105.255 72.2253 105.738 71.6509 106.207 71.0702C109.325 67.2258 109.635 61.7601 106.758 57.7431L106.779 57.7695Z" fill="#2500FF"/>
<path fill-rule="evenodd" clip-rule="evenodd" d="M82.1398 20.2709C78.6851 16.1354 74.1493 14.5769 68.8543 15.5121C64.9569 16.1978 62.0716 18.5024 59.7146 21.5685C58.9984 22.5007 58.4128 23.5103 57.8409 24.5262C57.7587 24.488 57.7314 24.4753 57.7314 24.4753C57.6664 24.3286 57.595 24.1956 57.5437 24.0552C55.4725 19.4141 52.1715 16.1657 47.062 15.0897C36.7818 12.9259 27.9316 22.0131 30.3976 32.1809C31.2853 35.8226 33.1718 38.963 35.47 41.862C37.7892 44.7873 40.3643 47.4488 43.0979 49.9841C46.2058 52.8598 49.4513 55.5831 52.866 58.0854C54.9285 59.5931 57.2262 59.8784 59.6699 59.1331C61.0025 58.737 62.0717 57.8689 63.1565 57.0746C68.833 52.9544 74.2583 48.551 78.9088 43.2715C81.0543 40.8396 82.9377 38.2192 84.1612 35.1924C86.3438 29.8148 85.8815 24.7561 82.1398 20.2709Z" fill="#2500FF"/>
</svg>